<svg xmlns="http://www.w3.org/2000/svg" width="79" height="57" viewBox="0 0 79 57" fill="white">
  <path d="M35.2149 47.5131C35.5155 47.5135 35.813 47.5732 36.0905 47.6886C36.3681 47.804 36.6201 47.973 36.8324 48.1858C37.0446 48.3986 37.2129 48.6512 37.3275 48.9291C37.4421 49.2069 37.5009 49.5046 37.5005 49.8052C37.5 50.1058 37.4404 50.4033 37.325 50.6809C37.2096 50.9584 37.0406 51.2105 36.8278 51.4227C36.6149 51.635 36.3624 51.8032 36.0845 51.9178C35.8067 52.0325 35.5089 52.0912 35.2084 52.0908C34.6013 52.0899 34.0195 51.848 33.5909 51.4181C33.1622 50.9883 32.9219 50.4057 32.9228 49.7987C32.9236 49.1917 33.1656 48.6098 33.5955 48.1812C34.0253 47.7526 34.6078 47.5122 35.2149 47.5131ZM71.1072 33.36C70.8066 33.3598 70.509 33.3004 70.2314 33.1852C69.9538 33.0699 69.7016 32.9012 69.4892 32.6885C69.2768 32.4758 69.1084 32.2233 68.9936 31.9456C68.8787 31.6678 68.8197 31.3701 68.8199 31.0695C68.8202 30.769 68.8796 30.4714 68.9948 30.1938C69.11 29.9161 69.2788 29.6639 69.4915 29.4515C69.7042 29.2392 69.9566 29.0707 70.2344 28.9559C70.5122 28.8411 70.8098 28.7821 71.1104 28.7823C71.7175 28.7827 72.2995 29.0243 72.7284 29.4538C73.1573 29.8834 73.3981 30.4657 73.3976 31.0728C73.3972 31.6798 73.1557 32.2618 72.7261 32.6908C72.2966 33.1197 71.7142 33.3604 71.1072 33.36ZM71.1072 23.9962C69.2304 23.998 67.4311 24.7442 66.104 26.0713C64.777 27.3983 64.0307 29.1977 64.029 31.0744C64.029 31.833 64.156 32.5884 64.4034 33.3242L41.0233 45.7712C40.375 44.8299 39.5075 44.0604 38.4956 43.5289C37.4838 42.9975 36.3578 42.72 35.2149 42.7205C32.5158 42.7205 30.0576 44.267 28.866 46.6796L7.86263 35.6033C5.64215 34.4377 3.98168 30.7846 4.15749 27.4572C4.24866 25.7218 4.84773 24.3739 5.76262 23.853C6.34216 23.5274 7.03891 23.5534 7.78124 23.9409L7.91798 24.0158C13.4855 26.946 31.6986 36.541 32.467 36.8958C33.6488 37.4461 34.3065 37.6675 36.3251 36.7103L73.9756 17.1297C74.5291 16.9213 75.1737 16.3906 75.1737 15.5864C75.1737 14.4729 74.0211 14.0334 74.0179 14.0334C71.8755 13.0078 68.5839 11.4678 65.3736 9.9636C58.5104 6.7501 50.7322 3.11008 47.3168 1.31937C44.367 -0.223895 41.9935 1.07844 41.5703 1.3389L40.7498 1.74588C25.3758 9.34825 4.79889 19.539 3.62679 20.252C1.53329 21.5283 0.234217 24.0711 0.0649137 27.226C-0.195553 32.2302 2.35376 37.4493 6.00355 39.3605L28.2148 50.8145C28.4595 52.4971 29.3014 54.0354 30.5866 55.1485C31.8718 56.2615 33.5147 56.875 35.2149 56.8769C37.0718 56.8737 38.8533 56.142 40.1763 54.8391C41.4994 53.5361 42.2582 51.766 42.2898 49.9094L66.7541 36.6484C67.9913 37.6186 69.5313 38.1493 71.1072 38.1493C72.9839 38.1476 74.7832 37.4013 76.1103 36.0743C77.4373 34.7472 78.1836 32.9479 78.1853 31.0712C78.1836 29.1944 77.4373 27.3951 76.1103 26.068C74.7832 24.741 72.9839 23.9947 71.1072 23.993" />
</svg>