<svg xmlns="http://www.w3.org/2000/svg" width="57" height="57" viewBox="0 0 57 57" fill="none">
  <path d="M45.947 7.19207C45.3823 7.23316 44.8279 7.36566 44.3056 7.58441H44.2985C43.7971 7.78321 41.4132 8.78604 37.7889 10.3061L24.8014 15.7759C15.4821 19.6993 6.32116 23.5628 6.32116 23.5628L6.43024 23.5206C6.43024 23.5206 5.79864 23.7282 5.13888 24.1804C4.73129 24.4397 4.38055 24.7791 4.1079 25.1779C3.78418 25.6529 3.5238 26.3796 3.62056 27.1308C3.7789 28.4011 4.60228 29.1629 5.19342 29.5833C5.7916 30.0091 6.36163 30.2079 6.36163 30.2079H6.3757L14.9666 33.102C15.3519 34.3389 17.5845 41.6789 18.1211 43.3696C18.4378 44.3795 18.7457 45.0111 19.131 45.4932C19.3175 45.7395 19.5357 45.9453 19.7978 46.1107C19.9341 46.19 20.0794 46.2526 20.2306 46.2972L20.1426 46.2761C20.169 46.2831 20.1901 46.3042 20.2095 46.3113C20.2799 46.3306 20.3274 46.3376 20.4171 46.3517C21.7771 46.7634 22.8696 45.9189 22.8696 45.9189L22.9312 45.8697L28.0034 41.2514L36.5046 47.7733L36.6981 47.856C38.4698 48.6336 40.2643 48.2008 41.2126 47.4372C42.1679 46.6684 42.5392 45.6849 42.5392 45.6849L42.6007 45.5266L49.1702 11.8719C49.3567 11.0415 49.4042 10.2639 49.1983 9.50914C48.986 8.74527 48.4959 8.0883 47.8243 7.6671C47.2603 7.32423 46.6062 7.15873 45.947 7.19207ZM45.7693 10.7987C45.7623 10.9096 45.7834 10.8973 45.7342 11.1101V11.1295L39.2263 44.434C39.1982 44.4815 39.1507 44.5853 39.0205 44.6891C38.8832 44.7982 38.7742 44.8668 38.2024 44.6399L27.8046 36.6683L21.5237 42.3932L22.8432 33.9659L39.8315 18.1317C40.5318 17.4808 40.2978 17.3435 40.2978 17.3435C40.347 16.5448 39.2404 17.1095 39.2404 17.1095L17.8185 30.3803L17.8115 30.3451L7.54391 26.888V26.881L7.51752 26.8757C7.53552 26.8697 7.55315 26.8627 7.5703 26.8546L7.6266 26.8264L7.68114 26.8071C7.68114 26.8071 16.8491 22.9435 26.1684 19.0202C30.8342 17.055 35.5352 15.0757 39.1507 13.5486C41.2949 12.6461 43.4413 11.7488 45.5899 10.8568C45.7342 10.8005 45.6655 10.7987 45.7693 10.7987Z" fill="white"/>
</svg>