<svg xmlns="http://www.w3.org/2000/svg" width="58" height="57" viewBox="0 0 58 57" fill="none">
  <path d="M16.9261 40.8132L14.899 38.7861L19.8751 33.8077L21.9021 35.8347C25.1139 39.0442 30.341 39.0466 33.5528 35.8347L47.6411 21.7488C50.8529 18.537 50.8529 13.3099 47.6411 10.0981C44.8375 7.29451 40.5043 6.86517 37.3113 8.95085C35.0262 8.05933 32.5675 7.59011 30.0384 7.59011H30.0337C29.487 7.59011 28.9428 7.61358 28.4055 7.6558L31.0144 5.04695C33.9939 2.06741 37.9048 0.577637 41.8181 0.577637C45.7291 0.577637 49.4124 1.93133 52.8072 5.32848C58.5646 11.2993 58.5082 20.8362 52.6195 26.7249L38.5312 40.8108C35.5517 43.7904 31.6408 45.2778 27.7298 45.2778C23.8189 45.2778 19.9056 43.788 16.9284 40.8108L16.9261 40.8132ZM5.04074 52.126C8.62792 55.7132 12.1236 56.8792 16.0345 56.8769C19.9455 56.8769 23.8564 55.3871 26.8313 52.4099L29.4401 49.8011C28.9005 49.8433 28.3586 49.8667 27.8119 49.8667H27.8072C25.2782 49.8667 22.8194 49.3999 20.5344 48.506C17.3437 50.5917 13.0081 50.16 10.2045 47.3564C6.99269 44.1446 6.99269 38.9175 10.2045 35.7057L24.2928 21.6198C27.5046 18.408 32.7317 18.408 35.9435 21.6198L37.9705 23.6468L42.9466 18.6684L40.9196 16.6413C34.9652 10.687 25.2735 10.6846 19.3167 16.6413L5.22842 30.7296C-0.660274 36.6183 -0.71658 46.1552 5.04074 52.126Z" fill="white"/>
</svg>