<svg xmlns="http://www.w3.org/2000/svg" width="496" height="71" viewBox="0 0 496 71" fill="none">
  <path d="M5.64178 60.2817C2.88036 60.2817 0.641785 62.5203 0.641785 65.2817C0.641785 68.0432 2.88036 70.2817 5.64178 70.2817V60.2817ZM495.047 0.640942H250.625V10.6409H495.047V0.640942ZM147.008 60.2817H5.64178V70.2817H147.008V60.2817ZM194.493 32.9499C184.665 49.8698 166.575 60.2817 147.008 60.2817V70.2817C170.139 70.2817 191.522 57.9738 203.14 37.9728L194.493 32.9499ZM250.625 0.640942C227.495 0.640942 206.111 12.9489 194.493 32.9499L203.14 37.9728C212.969 21.0529 231.058 10.6409 250.625 10.6409V0.640942Z" fill="url(#paint0_linear_41_1394)"/>
  <defs>
    <linearGradient id="paint0_linear_41_1394" x1="5.64178" y1="16.5509" x2="498.992" y2="16.5509" gradientUnits="userSpaceOnUse">
      <stop stop-color="#C1FF72"/>
      <stop offset="1" stop-color="#979FA9" stop-opacity="0"/>
    </linearGradient>
  </defs>
</svg>