<svg width="69" height="68" viewBox="0 0 69 68" fill="none" xmlns="http://www.w3.org/2000/svg">
<g id="Frame 6" clip-path="url(#clip0_41_1343)">
<path id="Union" fill-rule="evenodd" clip-rule="evenodd" d="M44.4291 14.9996L71.393 -2.95011L66.8218 -10.8677L39.8579 7.08208L44.4291 14.9996ZM26.1994 36.5711C34.6067 37.3942 42.0895 31.246 42.9127 22.8387C43.7358 14.4313 37.5876 6.94852 29.1803 6.12537C20.7729 5.30222 13.2901 11.4504 12.467 19.8578C11.6438 28.2651 17.792 35.7479 26.1994 36.5711ZM59.4075 76.9879C67.8149 77.811 75.2977 71.6628 76.1209 63.2555C76.944 54.8481 70.7958 47.3653 62.3884 46.5422C53.9811 45.719 46.4983 51.8672 45.6751 60.2746C44.852 68.6819 51.0002 76.1647 59.4075 76.9879ZM46.4117 51.3347L35.1123 37.5825L42.1762 31.7785L53.4756 45.5308L46.4117 51.3347Z" fill="#C1FF72"/>
</g>
<defs>
<clipPath id="clip0_41_1343">
<rect width="68.568" height="67.8062" fill="white" transform="translate(0 0.0327148)"/>
</clipPath>
</defs>
</svg>
